HIERARCHY
ROOT Hips
{
	OFFSET 0.00 0.00 0.00
	CHANNELS 6 Xposition Yposition Zposition Xrotation Yrotation Zrotation
	JOINT Spine
	{
		OFFSET 0.00000 6.86429 0.00000
		CHANNELS 3 Xrotation Yrotation Zrotation
		JOINT Head
		{
			OFFSET 0.00000 15.39383 0.00000
			CHANNELS 3 Xrotation Yrotation Zrotation
			End Site
			{
				OFFSET 0.00000 4.52755 0.00000
			}
		}
		JOINT LeftShoulder
		{
			OFFSET 0.00000 9.31483 0.00000
			CHANNELS 3 Xrotation Yrotation Zrotation
			JOINT LeftArm
			{
				OFFSET 8.27540 0.00000 0.00000
				CHANNELS 3 Xrotation Yrotation Zrotation
				JOINT LeftForeArm
				{
					OFFSET 12.00220 0.00000 0.00000
					CHANNELS 3 Yrotation Zrotation Xrotation
					JOINT LeftHand
					{
						OFFSET 10.14463 0.00000 0.00000
						CHANNELS 3 Xrotation Yrotation Zrotation
						JOINT LeftHandThumb1
						{
							OFFSET 0.00000 0.00000 0.00000
							CHANNELS 3 Xrotation Zrotation Yrotation
							End Site
							{
								OFFSET 0.00000 0.00000 3.93700
							}
						}
						End Site
						{
							OFFSET 3.93700 0.00000 0.00000
						}
					}
				}
			}
		}
		JOINT RightShoulder
		{
			OFFSET 0.00000 9.31483 0.00000
			CHANNELS 3 Xrotation Yrotation Zrotation
			JOINT RightArm
			{
				OFFSET -8.27540 0.00000 0.00000
				CHANNELS 3 Xrotation Yrotation Zrotation
				JOINT RightForeArm
				{
					OFFSET -12.00220 0.00000 0.00000
					CHANNELS 3 Yrotation Zrotation Xrotation
					JOINT RightHand
					{
						OFFSET -10.14463 0.00000 0.00000
						CHANNELS 3 Xrotation Yrotation Zrotation
						JOINT RightHandThumb1
						{
							OFFSET 0.00000 0.00000 0.00000
							CHANNELS 3 Xrotation Zrotation Yrotation
							End Site
							{
								OFFSET 0.00000 0.00000 3.93700
							}
						}
						End Site
						{
							OFFSET -3.93700 0.00000 0.00000
						}
					}
				}
			}
		}
	}
	JOINT LeftUpLeg
	{
		OFFSET 4.11738 0.00000 0.00000
		CHANNELS 3 Xrotation Yrotation Zrotation
		JOINT LeftLeg
		{
			OFFSET 0.00000 -19.39432 0.00000
			CHANNELS 3 Xrotation Yrotation Zrotation
			JOINT LeftFoot
			{
				OFFSET 0.00000 -17.60956 0.00000
				CHANNELS 3 Xrotation Yrotation Zrotation
				JOINT LeftToeBase
				{
					OFFSET 0.00000 -1.57501 5.87804
					CHANNELS 3 Xrotation Yrotation Zrotation
					End Site
					{
						OFFSET 0.00000 0.00000 2.95275
					}
				}
			}
		}
	}
	JOINT RightUpLeg
	{
		OFFSET -4.11738 0.00000 0.00000
		CHANNELS 3 Xrotation Yrotation Zrotation
		JOINT RightLeg
		{
			OFFSET 0.00000 -19.39432 0.00000
			CHANNELS 3 Xrotation Yrotation Zrotation
			JOINT RightFoot
			{
				OFFSET 0.00000 -17.60956 0.00000
				CHANNELS 3 Xrotation Yrotation Zrotation
				JOINT RightToeBase
				{
					OFFSET 0.00000 -1.57501 5.87804
					CHANNELS 3 Xrotation Yrotation Zrotation
					End Site
					{
						OFFSET 0.00000 0.00000 2.95275
					}
				}
			}
		}
	}
}
MOTION
Frames:	19
Frame Time: 0.008333
0.2164 39.5582 -7.9627 1.9286 -1.3796 -2.4012 3.2176 5.8866 4.7400 1.5095 1.1923 -3.2758 -8.8180 8.6651 24.8597 -32.9113 30.4203 -37.4632 -14.5175 0.0000 -5.0878 -0.2523 1.0307 13.7574 32.8623 0.0000 24.3270 12.8314 -23.4242 -24.1344 -43.7469 -19.5698 40.0104 9.4229 0.0000 -25.1652 -1.4562 10.3796 8.0313 33.1476 -0.0000 -26.2537 1.0794 4.1083 1.1823 2.2115 -0.0000 -0.0000 -11.2649 27.6085 -7.1185 11.7794 -0.0000 -0.0000 0.9989 -6.6510 -2.6777 2.6075 -0.0000 -0.0000 -6.0234 -11.2343 14.4787 11.5382 -0.0000 -0.0000
0.2145 39.5586 -7.9643 1.9327 -1.3653 -2.3986 3.2146 5.8898 4.7525 1.5086 1.2045 -3.2876 -8.8055 8.6643 24.8496 -32.9332 30.4172 -37.4544 -14.4884 0.0000 -5.0877 -0.2547 1.0397 13.7643 32.8623 0.0000 24.3270 12.8331 -23.4316 -24.1451 -43.7373 -19.5410 40.0154 9.4308 0.0000 -25.2189 -1.4467 10.3507 8.0011 33.1476 -0.0000 -26.2537 1.0738 4.1008 1.1760 2.1894 -0.0000 -0.0000 -11.2576 27.6506 -7.1135 11.8422 -0.0000 -0.0000 0.9957 -6.6380 -2.6768 2.6089 -0.0000 -0.0000 -6.0234 -11.2632 14.4886 11.5342 -0.0000 -0.0000
0.2123 39.5588 -7.9664 1.9317 -1.3486 -2.3978 3.2224 5.8906 4.7634 1.4976 1.2157 -3.2885 -8.7986 8.6695 24.8508 -32.9373 30.4070 -37.4628 -14.4630 0.0000 -5.0616 -0.2576 1.0606 13.6523 32.8623 0.0000 24.3270 12.8647 -23.4339 -24.1495 -43.7635 -19.5486 40.0076 9.4445 -0.0000 -25.2749 -1.4504 10.3456 8.0253 33.1476 -0.0000 -26.2537 1.0650 4.0977 1.1801 2.1988 -0.0000 -0.0000 -11.2467 27.6379 -7.1135 11.8037 -0.0000 -0.0000 0.9943 -6.6258 -2.6730 2.6163 -0.0000 -0.0000 -6.0288 -11.2866 14.4725 11.5151 -0.0000 -0.0000
0.2101 39.5591 -7.9674 1.9321 -1.3292 -2.3987 3.2244 5.8929 4.7795 1.4943 1.1975 -3.2960 -8.7857 8.6817 24.8461 -32.9524 30.3921 -37.4716 -14.4473 0.0000 -5.0810 -0.2614 1.0761 13.6549 32.8623 0.0000 24.3270 12.8765 -23.4481 -24.1564 -43.7872 -19.5405 39.9991 9.4499 0.0000 -25.2662 -1.4574 10.3503 8.0600 33.1476 -0.0000 -26.2537 1.0549 4.0954 1.1853 2.2127 -0.0000 -0.0000 -11.2534 27.6264 -7.1412 11.8498 -0.0000 -0.0000 0.9960 -6.6278 -2.6679 2.6173 -0.0000 -0.0000 -6.0307 -11.3023 14.4599 11.5395 -0.0000 -0.0000
0.2071 39.5594 -7.9689 1.9323 -1.3173 -2.3970 3.2310 5.8968 4.7833 1.4776 1.2188 -3.2685 -8.7851 8.6801 24.8561 -32.9576 30.4063 -37.4727 -14.4396 -0.0000 -5.1011 -0.2542 1.0454 13.6673 32.8623 0.0000 24.3270 12.8799 -23.4450 -24.1583 -43.7812 -19.5237 39.9909 9.4631 0.0000 -25.2835 -1.4566 10.3262 8.0737 33.1476 -0.0000 -26.2537 1.0487 4.0858 1.1893 2.2206 -0.0000 -0.0000 -11.2513 27.6171 -7.1287 11.8396 -0.0000 -0.0000 0.9915 -6.6326 -2.6645 2.6278 -0.0000 -0.0000 -6.0416 -11.3158 14.4592 11.5589 -0.0000 -0.0000
0.2056 39.5593 -7.9701 1.9307 -1.3033 -2.4063 3.2358 5.8932 4.8300 1.4814 1.1916 -3.4104 -8.7704 8.6887 24.8271 -32.9768 30.3978 -37.4603 -14.4038 -0.0000 -5.1272 -0.2495 1.0259 13.6722 32.8623 0.0000 24.3270 12.8585 -23.4505 -24.2143 -43.7589 -19.5051 40.0101 9.4728 0.0000 -25.2904 -1.4444 10.3285 8.0052 33.1476 -0.0000 -26.2537 1.0442 4.1008 1.2014 2.2225 -0.0000 -0.0000 -11.2488 27.5885 -7.1318 11.8072 -0.0000 -0.0000 0.9945 -6.6273 -2.6533 2.6295 -0.0000 -0.0000 -6.0294 -11.3168 14.4593 11.5370 -0.0000 -0.0000
0.2021 39.5596 -7.9717 1.9353 -1.2831 -2.4012 3.2406 5.8965 4.8194 1.4589 1.2281 -3.3060 -8.7568 8.6986 24.8508 -33.0134 30.4227 -37.4762 -14.4223 0.0000 -5.1150 -0.2562 1.0518 13.6933 32.8623 0.0000 24.3270 12.8508 -23.4355 -24.1892 -43.7168 -19.4493 39.9803 9.4647 -0.0000 -25.3357 -1.4373 10.3329 7.9631 33.1476 -0.0000 -26.2537 1.0279 4.0898 1.2032 2.2389 -0.0000 -0.0000 -11.2484 27.5781 -7.1459 11.8196 -0.0000 -0.0000 0.9892 -6.6162 -2.6512 2.6492 -0.0000 -0.0000 -6.0472 -11.2900 14.3711 11.3842 -0.0000 -0.0000
0.2009 39.5596 -7.9728 1.9395 -1.2713 -2.3980 3.2389 5.8938 4.8327 1.4513 1.2295 -3.3130 -8.7326 8.7265 24.8491 -32.9938 30.3955 -37.5159 -14.4448 0.0000 -5.3036 -0.2599 1.0571 13.8126 32.8623 0.0000 24.3270 12.8571 -23.4380 -24.1956 -43.7367 -19.4197 39.9672 9.4533 0.0000 -25.3434 -1.4332 10.3408 7.9348 33.1476 -0.0000 -26.2537 1.0174 4.0864 1.2019 2.2443 -0.0000 -0.0000 -11.2396 27.6012 -7.1571 11.7323 -0.0000 -0.0000 0.9908 -6.5925 -2.6510 2.6311 -0.0000 -0.0000 -6.0524 -11.3969 14.4667 11.6202 -0.0000 -0.0000
0.1979 39.5598 -7.9736 1.9401 -1.2560 -2.3955 3.2443 5.9027 4.8353 1.4430 1.2550 -3.2534 -8.7010 8.7378 24.8590 -33.0238 30.4186 -37.5210 -14.4589 0.0000 -5.2259 -0.2562 1.0479 13.7393 32.8623 0.0000 24.3270 12.8503 -23.4358 -24.1844 -43.7650 -19.4217 39.9307 9.4601 0.0000 -25.2875 -1.4400 10.3606 7.9570 33.1476 -0.0000 -26.2537 1.0152 4.0525 1.2041 2.2451 -0.0000 -0.0000 -11.2324 27.5959 -7.1542 11.7932 -0.0000 -0.0000 0.9905 -6.5901 -2.6485 2.6324 -0.0000 -0.0000 -6.0510 -11.4054 14.4497 11.5257 -0.0000 -0.0000
0.1955 39.5599 -7.9749 1.9413 -1.2394 -2.3966 3.2489 5.8970 4.8561 1.4433 1.2261 -3.3335 -8.6923 8.7514 24.8476 -33.0224 30.4218 -37.5161 -14.4775 0.0000 -5.2268 -0.2504 1.0276 13.6963 32.8623 0.0000 24.3270 12.8485 -23.4304 -24.1892 -43.7336 -19.3734 39.9105 9.4773 -0.0000 -25.2699 -1.4496 10.3781 7.9962 33.1476 -0.0000 -26.2537 1.0051 4.0530 1.2085 2.2563 -0.0000 -0.0000 -11.2280 27.5904 -7.1159 11.6680 -0.0000 -0.0000 0.9926 -6.5817 -2.6427 2.6317 -0.0000 -0.0000 -6.0553 -11.4309 14.4278 11.5234 -0.0000 -0.0000
0.1936 39.5604 -7.9761 1.9626 -1.2407 -2.4039 3.2244 5.9085 4.8862 1.4512 1.2170 -3.3548 -8.6972 8.7652 24.8385 -32.9914 30.4031 -37.5330 -14.4887 0.0000 -5.2319 -0.2530 1.0362 13.7201 32.8623 0.0000 24.3270 12.8530 -23.4382 -24.1939 -43.6964 -19.3111 39.9065 9.5058 -0.0000 -25.3241 -1.4435 10.3748 7.9654 33.1476 -0.0000 -26.2537 0.9800 4.0602 1.2191 2.2581 -0.0000 -0.0000 -11.2421 27.5793 -7.1440 11.8401 -0.0000 -0.0000 0.9602 -6.6102 -2.6349 2.6503 -0.0000 -0.0000 -6.0553 -11.3958 14.4337 11.5372 -0.0000 -0.0000
0.1893 39.5603 -7.9769 1.9516 -1.2099 -2.4060 3.2461 5.9020 4.8945 1.4479 1.2032 -3.3422 -8.6755 8.7684 24.8310 -33.0267 30.4075 -37.5217 -14.5109 0.0000 -5.2191 -0.2574 1.0547 13.7164 32.8623 0.0000 24.3270 12.8460 -23.4477 -24.1943 -43.7998 -19.3856 39.8837 9.5441 -0.0000 -25.1845 -1.4318 10.3852 7.8941 33.1476 -0.0000 -26.2537 0.9814 4.0358 1.2297 2.2688 -0.0000 -0.0000 -11.2338 27.5842 -7.1538 11.7038 -0.0000 -0.0000 0.9743 -6.6492 -2.6270 2.6531 -0.0000 -0.0000 -6.0648 -11.3833 14.4510 11.5327 -0.0000 -0.0000
0.1873 39.5604 -7.9775 1.9515 -1.1983 -2.4059 3.2533 5.9021 4.9060 1.4461 1.1972 -3.3408 -8.7144 8.7613 24.8275 -32.9649 30.3966 -37.5290 -14.5350 -0.0000 -5.2167 -0.2557 1.0448 13.7525 32.8623 0.0000 24.3270 12.8549 -23.4455 -24.1822 -43.8364 -19.3793 39.8572 9.5663 0.0000 -25.1584 -1.4259 10.3843 7.8626 33.1476 -0.0000 -26.2537 0.9775 4.0324 1.2318 2.2729 -0.0000 -0.0000 -11.2358 27.5620 -7.1407 11.8252 -0.0000 -0.0000 0.9754 -6.6381 -2.6231 2.6579 -0.0000 -0.0000 -6.0647 -11.4024 14.4467 11.5153 -0.0000 -0.0000
0.1854 39.5607 -7.9784 1.9647 -1.1943 -2.4081 3.2370 5.9164 4.9302 1.4676 1.1788 -3.3587 -8.7084 8.7635 24.8075 -32.9721 30.4038 -37.5267 -14.5719 0.0000 -5.1686 -0.2668 1.0845 13.8204 32.8623 0.0000 24.3270 12.8539 -23.4586 -24.1812 -43.8311 -19.3457 39.8473 9.6090 0.0000 -25.1576 -1.4295 10.3857 7.8811 33.1476 -0.0000 -26.2537 0.9574 4.0386 1.2381 2.2837 -0.0000 -0.0000 -11.2277 27.5800 -7.1613 11.6954 -0.0000 -0.0000 0.9604 -6.6346 -2.6181 2.6604 -0.0000 -0.0000 -6.0700 -11.4066 14.4278 11.5485 -0.0000 -0.0000
0.1820 39.5608 -7.9787 1.9671 -1.1804 -2.4107 3.2401 5.9181 4.9423 1.4733 1.1665 -3.3639 -8.7349 8.7513 24.8073 -32.9030 30.3921 -37.5385 -14.6091 0.0000 -5.1876 -0.2714 1.1002 13.8586 32.8623 0.0000 24.3270 12.8555 -23.4565 -24.1811 -43.8463 -19.3651 39.8396 9.6598 0.0000 -25.1761 -1.4599 10.4158 8.0238 33.1476 -0.0000 -26.2537 0.9512 4.0324 1.2461 2.2854 -0.0000 -0.0000 -11.2348 27.5707 -7.1546 11.7153 -0.0000 -0.0000 0.9586 -6.6636 -2.6096 2.6631 -0.0000 -0.0000 -6.0755 -11.3943 14.3992 11.5340 -0.0000 -0.0000
0.1785 39.5610 -7.9784 1.9672 -1.1666 -2.4112 3.2409 5.9257 4.9504 1.4874 1.1407 -3.3411 -8.7165 8.7643 24.8063 -32.9392 30.4167 -37.5473 -14.6484 0.0000 -5.1217 -0.2695 1.0893 13.8942 32.8623 0.0000 24.3270 12.8684 -23.4622 -24.1610 -43.8771 -19.3713 39.8189 9.7020 0.0000 -25.1327 -1.4582 10.4145 8.0156 33.1476 -0.0000 -26.2537 0.9428 4.0382 1.2609 2.3172 -0.0000 -0.0000 -11.2376 27.5179 -7.2423 11.6992 -0.0000 -0.0000 0.9649 -6.6559 -2.6034 2.6601 -0.0000 -0.0000 -6.0727 -11.4096 14.4148 11.5233 -0.0000 -0.0000
0.1741 39.5610 -7.9790 1.9696 -1.1600 -2.4163 3.2405 5.9372 4.9632 1.5090 1.1320 -3.3404 -8.7239 8.7698 24.8005 -32.9205 30.3956 -37.5726 -14.6966 -0.0000 -5.3584 -0.2772 1.1091 14.0354 32.8623 0.0000 24.3270 12.8649 -23.4475 -24.1612 -43.8378 -19.3660 39.8185 9.7578 -0.0000 -25.1887 -1.4424 10.3955 7.9443 33.1476 -0.0000 -26.2537 0.9346 4.0801 1.2795 2.2986 -0.0000 -0.0000 -11.1804 27.5065 -7.2716 11.5891 -0.0000 -0.0000 0.9598 -6.6708 -2.5915 2.6669 -0.0000 -0.0000 -6.0780 -11.4041 14.4195 11.5630 -0.0000 -0.0000
0.1711 39.5612 -7.9791 1.9719 -1.1468 -2.4164 3.2403 5.9384 4.9766 1.5287 1.1204 -3.3474 -8.7262 8.7774 24.7998 -32.9210 30.4211 -37.5821 -14.7317 -0.0000 -5.2981 -0.2672 1.0723 13.9951 32.8623 0.0000 24.3270 12.8638 -23.4477 -24.1500 -43.8277 -19.3380 39.8125 9.8010 0.0000 -25.1810 -1.4362 10.3793 7.9227 33.1476 -0.0000 -26.2537 0.9238 4.0650 1.2844 2.3407 -0.0000 -0.0000 -11.2284 27.4734 -7.3162 11.6657 -0.0000 -0.0000 0.9568 -6.6854 -2.5854 2.6893 -0.0000 -0.0000 -6.0878 -11.3445 14.3376 11.3958 -0.0000 -0.0000
0.1674 39.5612 -7.9789 1.9696 -1.1368 -2.4181 3.2474 5.9373 4.9891 1.5482 1.1169 -3.3474 -8.7353 8.7763 24.7975 -32.9268 30.4693 -37.5704 -14.7847 0.0000 -5.2127 -0.2709 1.0925 13.9275 32.8623 0.0000 24.3270 12.8769 -23.4450 -24.1399 -43.8151 -19.3056 39.8236 9.8345 0.0000 -25.1830 -1.4254 10.4158 7.8367 33.1476 -0.0000 -26.2537 0.9212 4.0784 1.2944 2.3535 -0.0000 -0.0000 -11.2376 27.4449 -7.3294 11.7273 -0.0000 -0.0000 0.9614 -6.6965 -2.5791 2.6766 -0.0000 -0.0000 -6.0871 -11.3995 14.3947 11.4993 -0.0000 -0.0000
